<mxfile host="65bd71144e">
    <diagram id="u2wwolVqARAETb3lKkT-" name="Página-1">
        <mxGraphModel dx="644" dy="530" grid="1" gridSize="10" guides="1" tooltips="1" connect="1" arrows="1" fold="1" page="1" pageScale="1" pageWidth="827" pageHeight="1169" math="0" shadow="0">
            <root>
                <mxCell id="0"/>
                <mxCell id="1" parent="0"/>
                <mxCell id="18" value="- socios 0..*" style="edgeStyle=none;html=1;entryX=0;entryY=0.5;entryDx=0;entryDy=0;fontSize=13;fontStyle=1" parent="1" source="2" target="16" edge="1">
                    <mxGeometry relative="1" as="geometry"/>
                </mxCell>
                <mxCell id="19" value="- exporter" style="edgeStyle=none;html=1;entryX=0.5;entryY=0;entryDx=0;entryDy=0;fontSize=13;fontStyle=1" parent="1" source="2" target="6" edge="1">
                    <mxGeometry relative="1" as="geometry"/>
                </mxCell>
                <mxCell id="2" value="Biblioteca" style="swimlane;fontStyle=1;align=center;verticalAlign=top;childLayout=stackLayout;horizontal=1;startSize=26;horizontalStack=0;resizeParent=1;resizeParentMax=0;resizeLast=0;collapsible=1;marginBottom=0;fontSize=12;" parent="1" vertex="1">
                    <mxGeometry x="40" y="40" width="240" height="138" as="geometry"/>
                </mxCell>
                <mxCell id="4" value="" style="line;strokeWidth=1;fillColor=none;align=left;verticalAlign=middle;spacingTop=-1;spacingLeft=3;spacingRight=3;rotatable=0;labelPosition=right;points=[];portConstraint=eastwest;fontSize=12;" parent="2" vertex="1">
                    <mxGeometry y="26" width="240" height="8" as="geometry"/>
                </mxCell>
                <mxCell id="5" value="+ agregarSocio(socio: Socio)" style="text;strokeColor=none;fillColor=none;align=left;verticalAlign=top;spacingLeft=4;spacingRight=4;overflow=hidden;rotatable=0;points=[[0,0.5],[1,0.5]];portConstraint=eastwest;fontSize=12;" parent="2" vertex="1">
                    <mxGeometry y="34" width="240" height="26" as="geometry"/>
                </mxCell>
                <mxCell id="20" value="+ exportqarSocios(): string" style="text;strokeColor=none;fillColor=none;align=left;verticalAlign=top;spacingLeft=4;spacingRight=4;overflow=hidden;rotatable=0;points=[[0,0.5],[1,0.5]];portConstraint=eastwest;fontSize=12;" parent="2" vertex="1">
                    <mxGeometry y="60" width="240" height="26" as="geometry"/>
                </mxCell>
                <mxCell id="21" value="+ getExporter(): VorheesExporter" style="text;strokeColor=none;fillColor=none;align=left;verticalAlign=top;spacingLeft=4;spacingRight=4;overflow=hidden;rotatable=0;points=[[0,0.5],[1,0.5]];portConstraint=eastwest;fontSize=12;" parent="2" vertex="1">
                    <mxGeometry y="86" width="240" height="26" as="geometry"/>
                </mxCell>
                <mxCell id="22" value="+ setExporter(exporter: VorheesExporter)" style="text;strokeColor=none;fillColor=none;align=left;verticalAlign=top;spacingLeft=4;spacingRight=4;overflow=hidden;rotatable=0;points=[[0,0.5],[1,0.5]];portConstraint=eastwest;fontSize=12;" parent="2" vertex="1">
                    <mxGeometry y="112" width="240" height="26" as="geometry"/>
                </mxCell>
                <mxCell id="6" value="VorheesExporter" style="swimlane;fontStyle=1;align=center;verticalAlign=top;childLayout=stackLayout;horizontal=1;startSize=26;horizontalStack=0;resizeParent=1;resizeParentMax=0;resizeLast=0;collapsible=1;marginBottom=0;fontSize=12;" parent="1" vertex="1">
                    <mxGeometry x="100" y="400" width="190" height="86" as="geometry"/>
                </mxCell>
                <mxCell id="8" value="" style="line;strokeWidth=1;fillColor=none;align=left;verticalAlign=middle;spacingTop=-1;spacingLeft=3;spacingRight=3;rotatable=0;labelPosition=right;points=[];portConstraint=eastwest;fontSize=12;" parent="6" vertex="1">
                    <mxGeometry y="26" width="190" height="8" as="geometry"/>
                </mxCell>
                <mxCell id="9" value="- exportar(socio:Socio):string" style="text;strokeColor=none;fillColor=none;align=left;verticalAlign=top;spacingLeft=4;spacingRight=4;overflow=hidden;rotatable=0;points=[[0,0.5],[1,0.5]];portConstraint=eastwest;fontSize=12;" parent="6" vertex="1">
                    <mxGeometry y="34" width="190" height="26" as="geometry"/>
                </mxCell>
                <mxCell id="15" value="+ exportar(socios: Socio[]) string" style="text;strokeColor=none;fillColor=none;align=left;verticalAlign=top;spacingLeft=4;spacingRight=4;overflow=hidden;rotatable=0;points=[[0,0.5],[1,0.5]];portConstraint=eastwest;fontSize=12;" parent="6" vertex="1">
                    <mxGeometry y="60" width="190" height="26" as="geometry"/>
                </mxCell>
                <mxCell id="10" value="Socio" style="swimlane;fontStyle=1;align=center;verticalAlign=top;childLayout=stackLayout;horizontal=1;startSize=26;horizontalStack=0;resizeParent=1;resizeParentMax=0;resizeLast=0;collapsible=1;marginBottom=0;fontSize=12;" parent="1" vertex="1">
                    <mxGeometry x="550" y="40" width="160" height="190" as="geometry"/>
                </mxCell>
                <mxCell id="11" value="- nombre" style="text;strokeColor=none;fillColor=none;align=left;verticalAlign=top;spacingLeft=4;spacingRight=4;overflow=hidden;rotatable=0;points=[[0,0.5],[1,0.5]];portConstraint=eastwest;fontSize=12;" parent="10" vertex="1">
                    <mxGeometry y="26" width="160" height="26" as="geometry"/>
                </mxCell>
                <mxCell id="16" value="- legajo" style="text;strokeColor=none;fillColor=none;align=left;verticalAlign=top;spacingLeft=4;spacingRight=4;overflow=hidden;rotatable=0;points=[[0,0.5],[1,0.5]];portConstraint=eastwest;fontSize=12;" parent="10" vertex="1">
                    <mxGeometry y="52" width="160" height="26" as="geometry"/>
                </mxCell>
                <mxCell id="13" value="- email" style="text;strokeColor=none;fillColor=none;align=left;verticalAlign=top;spacingLeft=4;spacingRight=4;overflow=hidden;rotatable=0;points=[[0,0.5],[1,0.5]];portConstraint=eastwest;fontSize=12;" parent="10" vertex="1">
                    <mxGeometry y="78" width="160" height="26" as="geometry"/>
                </mxCell>
                <mxCell id="12" value="" style="line;strokeWidth=1;fillColor=none;align=left;verticalAlign=middle;spacingTop=-1;spacingLeft=3;spacingRight=3;rotatable=0;labelPosition=right;points=[];portConstraint=eastwest;fontSize=12;" parent="10" vertex="1">
                    <mxGeometry y="104" width="160" height="8" as="geometry"/>
                </mxCell>
                <mxCell id="23" value="+ getNombre()" style="text;strokeColor=none;fillColor=none;align=left;verticalAlign=top;spacingLeft=4;spacingRight=4;overflow=hidden;rotatable=0;points=[[0,0.5],[1,0.5]];portConstraint=eastwest;fontSize=12;" parent="10" vertex="1">
                    <mxGeometry y="112" width="160" height="26" as="geometry"/>
                </mxCell>
                <mxCell id="24" value="+ getLegajo()" style="text;strokeColor=none;fillColor=none;align=left;verticalAlign=top;spacingLeft=4;spacingRight=4;overflow=hidden;rotatable=0;points=[[0,0.5],[1,0.5]];portConstraint=eastwest;fontSize=12;" parent="10" vertex="1">
                    <mxGeometry y="138" width="160" height="26" as="geometry"/>
                </mxCell>
                <mxCell id="25" value="+ getEmail()" style="text;strokeColor=none;fillColor=none;align=left;verticalAlign=top;spacingLeft=4;spacingRight=4;overflow=hidden;rotatable=0;points=[[0,0.5],[1,0.5]];portConstraint=eastwest;fontSize=12;" parent="10" vertex="1">
                    <mxGeometry y="164" width="160" height="26" as="geometry"/>
                </mxCell>
            </root>
        </mxGraphModel>
    </diagram>
    <diagram id="U-AKV9pHRdxwAijXKVDc" name="Página-2">
        <mxGraphModel dx="644" dy="530" grid="1" gridSize="10" guides="1" tooltips="1" connect="1" arrows="1" fold="1" page="1" pageScale="1" pageWidth="827" pageHeight="1169" math="0" shadow="0">
            <root>
                <mxCell id="ARMddJbQPuGgVM3o0gNS-0"/>
                <mxCell id="ARMddJbQPuGgVM3o0gNS-1" parent="ARMddJbQPuGgVM3o0gNS-0"/>
                <mxCell id="jIgIupFeCMF2DxUE9KCU-28" style="edgeStyle=none;html=1;endArrow=block;endFill=0;endSize=11;entryX=0.478;entryY=1.135;entryDx=0;entryDy=0;entryPerimeter=0;" parent="ARMddJbQPuGgVM3o0gNS-1" source="jIgIupFeCMF2DxUE9KCU-19" target="dZUBDx8BrvBs0M9-IEx3-11" edge="1">
                    <mxGeometry relative="1" as="geometry">
                        <mxPoint x="187.52777777777783" y="376" as="targetPoint"/>
                    </mxGeometry>
                </mxCell>
                <mxCell id="8zDMZIuEjyAzHtf3uXkh-4" style="edgeStyle=none;html=1;entryX=0;entryY=0.25;entryDx=0;entryDy=0;" parent="ARMddJbQPuGgVM3o0gNS-1" source="jIgIupFeCMF2DxUE9KCU-19" target="8zDMZIuEjyAzHtf3uXkh-0" edge="1">
                    <mxGeometry relative="1" as="geometry"/>
                </mxCell>
                <mxCell id="jIgIupFeCMF2DxUE9KCU-19" value="&lt;&lt;adapter&gt;&gt;&#10;JSONAdapter" style="swimlane;fontStyle=1;align=center;verticalAlign=top;childLayout=stackLayout;horizontal=1;startSize=40;horizontalStack=0;resizeParent=1;resizeParentMax=0;resizeLast=0;collapsible=1;marginBottom=0;" parent="ARMddJbQPuGgVM3o0gNS-1" vertex="1">
                    <mxGeometry x="60" y="440" width="260" height="100" as="geometry"/>
                </mxCell>
                <mxCell id="jIgIupFeCMF2DxUE9KCU-21" value="" style="line;strokeWidth=1;fillColor=none;align=left;verticalAlign=middle;spacingTop=-1;spacingLeft=3;spacingRight=3;rotatable=0;labelPosition=right;points=[];portConstraint=eastwest;" parent="jIgIupFeCMF2DxUE9KCU-19" vertex="1">
                    <mxGeometry y="40" width="260" height="8" as="geometry"/>
                </mxCell>
                <mxCell id="-jp-h8Isy5gx-Tryq9v--0" value="- exportar(socio:Socio):string" style="text;strokeColor=none;fillColor=none;align=left;verticalAlign=top;spacingLeft=4;spacingRight=4;overflow=hidden;rotatable=0;points=[[0,0.5],[1,0.5]];portConstraint=eastwest;" parent="jIgIupFeCMF2DxUE9KCU-19" vertex="1">
                    <mxGeometry y="48" width="260" height="26" as="geometry"/>
                </mxCell>
                <mxCell id="jIgIupFeCMF2DxUE9KCU-23" value="+ exportar(socios: Socio[]) : string" style="text;strokeColor=none;fillColor=none;align=left;verticalAlign=top;spacingLeft=4;spacingRight=4;overflow=hidden;rotatable=0;points=[[0,0.5],[1,0.5]];portConstraint=eastwest;" parent="jIgIupFeCMF2DxUE9KCU-19" vertex="1">
                    <mxGeometry y="74" width="260" height="26" as="geometry"/>
                </mxCell>
                <mxCell id="8zDMZIuEjyAzHtf3uXkh-0" value="&lt;&lt;adaptee&gt;&gt;&#10;JSON.simple&#10;" style="swimlane;fontStyle=1;align=center;verticalAlign=top;childLayout=stackLayout;horizontal=1;startSize=34;horizontalStack=0;resizeParent=1;resizeParentMax=0;resizeLast=0;collapsible=1;marginBottom=0;" parent="ARMddJbQPuGgVM3o0gNS-1" vertex="1">
                    <mxGeometry x="430" y="469" width="260" height="42" as="geometry"/>
                </mxCell>
                <mxCell id="8zDMZIuEjyAzHtf3uXkh-1" value="" style="line;strokeWidth=1;fillColor=none;align=left;verticalAlign=middle;spacingTop=-1;spacingLeft=3;spacingRight=3;rotatable=0;labelPosition=right;points=[];portConstraint=eastwest;" parent="8zDMZIuEjyAzHtf3uXkh-0" vertex="1">
                    <mxGeometry y="34" width="260" height="8" as="geometry"/>
                </mxCell>
                <mxCell id="dZUBDx8BrvBs0M9-IEx3-0" value="- socios 0..*" style="edgeStyle=none;html=1;entryX=0;entryY=0.5;entryDx=0;entryDy=0;fontSize=13;fontStyle=1" parent="ARMddJbQPuGgVM3o0gNS-1" source="dZUBDx8BrvBs0M9-IEx3-2" target="dZUBDx8BrvBs0M9-IEx3-14" edge="1">
                    <mxGeometry relative="1" as="geometry"/>
                </mxCell>
                <mxCell id="dZUBDx8BrvBs0M9-IEx3-1" value="- exporter" style="edgeStyle=none;html=1;entryX=0.5;entryY=0;entryDx=0;entryDy=0;fontSize=13;fontStyle=1" parent="ARMddJbQPuGgVM3o0gNS-1" source="dZUBDx8BrvBs0M9-IEx3-2" target="dZUBDx8BrvBs0M9-IEx3-8" edge="1">
                    <mxGeometry relative="1" as="geometry"/>
                </mxCell>
                <mxCell id="dZUBDx8BrvBs0M9-IEx3-2" value="&lt;&lt;client&gt;&gt;&#10;Biblioteca" style="swimlane;fontStyle=1;align=center;verticalAlign=top;childLayout=stackLayout;horizontal=1;startSize=40;horizontalStack=0;resizeParent=1;resizeParentMax=0;resizeLast=0;collapsible=1;marginBottom=0;fontSize=12;" parent="ARMddJbQPuGgVM3o0gNS-1" vertex="1">
                    <mxGeometry x="30" y="10" width="240" height="152" as="geometry"/>
                </mxCell>
                <mxCell id="dZUBDx8BrvBs0M9-IEx3-3" value="" style="line;strokeWidth=1;fillColor=none;align=left;verticalAlign=middle;spacingTop=-1;spacingLeft=3;spacingRight=3;rotatable=0;labelPosition=right;points=[];portConstraint=eastwest;fontSize=12;" parent="dZUBDx8BrvBs0M9-IEx3-2" vertex="1">
                    <mxGeometry y="40" width="240" height="8" as="geometry"/>
                </mxCell>
                <mxCell id="dZUBDx8BrvBs0M9-IEx3-4" value="+ agregarSocio(socio: Socio)" style="text;strokeColor=none;fillColor=none;align=left;verticalAlign=top;spacingLeft=4;spacingRight=4;overflow=hidden;rotatable=0;points=[[0,0.5],[1,0.5]];portConstraint=eastwest;fontSize=12;" parent="dZUBDx8BrvBs0M9-IEx3-2" vertex="1">
                    <mxGeometry y="48" width="240" height="26" as="geometry"/>
                </mxCell>
                <mxCell id="dZUBDx8BrvBs0M9-IEx3-5" value="+ exportqarSocios(): string" style="text;strokeColor=none;fillColor=none;align=left;verticalAlign=top;spacingLeft=4;spacingRight=4;overflow=hidden;rotatable=0;points=[[0,0.5],[1,0.5]];portConstraint=eastwest;fontSize=12;" parent="dZUBDx8BrvBs0M9-IEx3-2" vertex="1">
                    <mxGeometry y="74" width="240" height="26" as="geometry"/>
                </mxCell>
                <mxCell id="dZUBDx8BrvBs0M9-IEx3-6" value="+ getExporter(): VorheesExporter" style="text;strokeColor=none;fillColor=none;align=left;verticalAlign=top;spacingLeft=4;spacingRight=4;overflow=hidden;rotatable=0;points=[[0,0.5],[1,0.5]];portConstraint=eastwest;fontSize=12;" parent="dZUBDx8BrvBs0M9-IEx3-2" vertex="1">
                    <mxGeometry y="100" width="240" height="26" as="geometry"/>
                </mxCell>
                <mxCell id="dZUBDx8BrvBs0M9-IEx3-7" value="+ setExporter(exporter: VorheesExporter)" style="text;strokeColor=none;fillColor=none;align=left;verticalAlign=top;spacingLeft=4;spacingRight=4;overflow=hidden;rotatable=0;points=[[0,0.5],[1,0.5]];portConstraint=eastwest;fontSize=12;" parent="dZUBDx8BrvBs0M9-IEx3-2" vertex="1">
                    <mxGeometry y="126" width="240" height="26" as="geometry"/>
                </mxCell>
                <mxCell id="dZUBDx8BrvBs0M9-IEx3-8" value="&lt;&lt;target&gt;&gt;&#10;VorheesExporter" style="swimlane;fontStyle=1;align=center;verticalAlign=top;childLayout=stackLayout;horizontal=1;startSize=50;horizontalStack=0;resizeParent=1;resizeParentMax=0;resizeLast=0;collapsible=1;marginBottom=0;fontSize=12;" parent="ARMddJbQPuGgVM3o0gNS-1" vertex="1">
                    <mxGeometry x="100" y="290" width="190" height="110" as="geometry"/>
                </mxCell>
                <mxCell id="dZUBDx8BrvBs0M9-IEx3-9" value="" style="line;strokeWidth=1;fillColor=none;align=left;verticalAlign=middle;spacingTop=-1;spacingLeft=3;spacingRight=3;rotatable=0;labelPosition=right;points=[];portConstraint=eastwest;fontSize=12;" parent="dZUBDx8BrvBs0M9-IEx3-8" vertex="1">
                    <mxGeometry y="50" width="190" height="8" as="geometry"/>
                </mxCell>
                <mxCell id="dZUBDx8BrvBs0M9-IEx3-10" value="- exportar(socio:Socio):string" style="text;strokeColor=none;fillColor=none;align=left;verticalAlign=top;spacingLeft=4;spacingRight=4;overflow=hidden;rotatable=0;points=[[0,0.5],[1,0.5]];portConstraint=eastwest;fontSize=12;" parent="dZUBDx8BrvBs0M9-IEx3-8" vertex="1">
                    <mxGeometry y="58" width="190" height="26" as="geometry"/>
                </mxCell>
                <mxCell id="dZUBDx8BrvBs0M9-IEx3-11" value="+ exportar(socios: Socio[]) string" style="text;strokeColor=none;fillColor=none;align=left;verticalAlign=top;spacingLeft=4;spacingRight=4;overflow=hidden;rotatable=0;points=[[0,0.5],[1,0.5]];portConstraint=eastwest;fontSize=12;" parent="dZUBDx8BrvBs0M9-IEx3-8" vertex="1">
                    <mxGeometry y="84" width="190" height="26" as="geometry"/>
                </mxCell>
                <mxCell id="dZUBDx8BrvBs0M9-IEx3-12" value="Socio" style="swimlane;fontStyle=1;align=center;verticalAlign=top;childLayout=stackLayout;horizontal=1;startSize=26;horizontalStack=0;resizeParent=1;resizeParentMax=0;resizeLast=0;collapsible=1;marginBottom=0;fontSize=12;" parent="ARMddJbQPuGgVM3o0gNS-1" vertex="1">
                    <mxGeometry x="540" y="10" width="160" height="190" as="geometry"/>
                </mxCell>
                <mxCell id="dZUBDx8BrvBs0M9-IEx3-13" value="- nombre" style="text;strokeColor=none;fillColor=none;align=left;verticalAlign=top;spacingLeft=4;spacingRight=4;overflow=hidden;rotatable=0;points=[[0,0.5],[1,0.5]];portConstraint=eastwest;fontSize=12;" parent="dZUBDx8BrvBs0M9-IEx3-12" vertex="1">
                    <mxGeometry y="26" width="160" height="26" as="geometry"/>
                </mxCell>
                <mxCell id="dZUBDx8BrvBs0M9-IEx3-14" value="- legajo" style="text;strokeColor=none;fillColor=none;align=left;verticalAlign=top;spacingLeft=4;spacingRight=4;overflow=hidden;rotatable=0;points=[[0,0.5],[1,0.5]];portConstraint=eastwest;fontSize=12;" parent="dZUBDx8BrvBs0M9-IEx3-12" vertex="1">
                    <mxGeometry y="52" width="160" height="26" as="geometry"/>
                </mxCell>
                <mxCell id="dZUBDx8BrvBs0M9-IEx3-15" value="- email" style="text;strokeColor=none;fillColor=none;align=left;verticalAlign=top;spacingLeft=4;spacingRight=4;overflow=hidden;rotatable=0;points=[[0,0.5],[1,0.5]];portConstraint=eastwest;fontSize=12;" parent="dZUBDx8BrvBs0M9-IEx3-12" vertex="1">
                    <mxGeometry y="78" width="160" height="26" as="geometry"/>
                </mxCell>
                <mxCell id="dZUBDx8BrvBs0M9-IEx3-16" value="" style="line;strokeWidth=1;fillColor=none;align=left;verticalAlign=middle;spacingTop=-1;spacingLeft=3;spacingRight=3;rotatable=0;labelPosition=right;points=[];portConstraint=eastwest;fontSize=12;" parent="dZUBDx8BrvBs0M9-IEx3-12" vertex="1">
                    <mxGeometry y="104" width="160" height="8" as="geometry"/>
                </mxCell>
                <mxCell id="dZUBDx8BrvBs0M9-IEx3-17" value="+ getNombre()" style="text;strokeColor=none;fillColor=none;align=left;verticalAlign=top;spacingLeft=4;spacingRight=4;overflow=hidden;rotatable=0;points=[[0,0.5],[1,0.5]];portConstraint=eastwest;fontSize=12;" parent="dZUBDx8BrvBs0M9-IEx3-12" vertex="1">
                    <mxGeometry y="112" width="160" height="26" as="geometry"/>
                </mxCell>
                <mxCell id="dZUBDx8BrvBs0M9-IEx3-18" value="+ getLegajo()" style="text;strokeColor=none;fillColor=none;align=left;verticalAlign=top;spacingLeft=4;spacingRight=4;overflow=hidden;rotatable=0;points=[[0,0.5],[1,0.5]];portConstraint=eastwest;fontSize=12;" parent="dZUBDx8BrvBs0M9-IEx3-12" vertex="1">
                    <mxGeometry y="138" width="160" height="26" as="geometry"/>
                </mxCell>
                <mxCell id="dZUBDx8BrvBs0M9-IEx3-19" value="+ getEmail()" style="text;strokeColor=none;fillColor=none;align=left;verticalAlign=top;spacingLeft=4;spacingRight=4;overflow=hidden;rotatable=0;points=[[0,0.5],[1,0.5]];portConstraint=eastwest;fontSize=12;" parent="dZUBDx8BrvBs0M9-IEx3-12" vertex="1">
                    <mxGeometry y="164" width="160" height="26" as="geometry"/>
                </mxCell>
            </root>
        </mxGraphModel>
    </diagram>
    <diagram id="AuMihVQFaN1xH3O1F_mt" name="Página-3">
        <mxGraphModel dx="883" dy="530" grid="1" gridSize="10" guides="1" tooltips="1" connect="1" arrows="1" fold="1" page="1" pageScale="1" pageWidth="827" pageHeight="1169" math="0" shadow="0">
            <root>
                <mxCell id="6VugFxx_k9_ZybhpSdYj-0"/>
                <mxCell id="6VugFxx_k9_ZybhpSdYj-1" parent="6VugFxx_k9_ZybhpSdYj-0"/>
                <mxCell id="6VugFxx_k9_ZybhpSdYj-2" value="- socios 0..*" style="edgeStyle=none;html=1;entryX=0;entryY=0.5;entryDx=0;entryDy=0;" parent="6VugFxx_k9_ZybhpSdYj-1" source="6VugFxx_k9_ZybhpSdYj-4" target="6VugFxx_k9_ZybhpSdYj-17" edge="1">
                    <mxGeometry relative="1" as="geometry"/>
                </mxCell>
                <mxCell id="6VugFxx_k9_ZybhpSdYj-3" value="- exporter" style="edgeStyle=none;html=1;entryX=0.5;entryY=0;entryDx=0;entryDy=0;" parent="6VugFxx_k9_ZybhpSdYj-1" source="6VugFxx_k9_ZybhpSdYj-4" target="6VugFxx_k9_ZybhpSdYj-25" edge="1">
                    <mxGeometry relative="1" as="geometry"/>
                </mxCell>
                <mxCell id="6VugFxx_k9_ZybhpSdYj-4" value="&lt;&lt;client&gt;&gt;&#10;Biblioteca" style="swimlane;fontStyle=1;align=center;verticalAlign=top;childLayout=stackLayout;horizontal=1;startSize=40;horizontalStack=0;resizeParent=1;resizeParentMax=0;resizeLast=0;collapsible=1;marginBottom=0;" parent="6VugFxx_k9_ZybhpSdYj-1" vertex="1">
                    <mxGeometry x="40" y="40" width="240" height="152" as="geometry"/>
                </mxCell>
                <mxCell id="6VugFxx_k9_ZybhpSdYj-6" value="" style="line;strokeWidth=1;fillColor=none;align=left;verticalAlign=middle;spacingTop=-1;spacingLeft=3;spacingRight=3;rotatable=0;labelPosition=right;points=[];portConstraint=eastwest;" parent="6VugFxx_k9_ZybhpSdYj-4" vertex="1">
                    <mxGeometry y="40" width="240" height="8" as="geometry"/>
                </mxCell>
                <mxCell id="6VugFxx_k9_ZybhpSdYj-7" value="+ agregarSocio(socio: Socio)" style="text;strokeColor=none;fillColor=none;align=left;verticalAlign=top;spacingLeft=4;spacingRight=4;overflow=hidden;rotatable=0;points=[[0,0.5],[1,0.5]];portConstraint=eastwest;" parent="6VugFxx_k9_ZybhpSdYj-4" vertex="1">
                    <mxGeometry y="48" width="240" height="26" as="geometry"/>
                </mxCell>
                <mxCell id="6VugFxx_k9_ZybhpSdYj-8" value="+ exportqarSocios(): string" style="text;strokeColor=none;fillColor=none;align=left;verticalAlign=top;spacingLeft=4;spacingRight=4;overflow=hidden;rotatable=0;points=[[0,0.5],[1,0.5]];portConstraint=eastwest;" parent="6VugFxx_k9_ZybhpSdYj-4" vertex="1">
                    <mxGeometry y="74" width="240" height="26" as="geometry"/>
                </mxCell>
                <mxCell id="6VugFxx_k9_ZybhpSdYj-9" value="+ getExporter(): VorheesExporter" style="text;strokeColor=none;fillColor=none;align=left;verticalAlign=top;spacingLeft=4;spacingRight=4;overflow=hidden;rotatable=0;points=[[0,0.5],[1,0.5]];portConstraint=eastwest;" parent="6VugFxx_k9_ZybhpSdYj-4" vertex="1">
                    <mxGeometry y="100" width="240" height="26" as="geometry"/>
                </mxCell>
                <mxCell id="6VugFxx_k9_ZybhpSdYj-10" value="+ setExporter(exporter: VorheesExporter)" style="text;strokeColor=none;fillColor=none;align=left;verticalAlign=top;spacingLeft=4;spacingRight=4;overflow=hidden;rotatable=0;points=[[0,0.5],[1,0.5]];portConstraint=eastwest;" parent="6VugFxx_k9_ZybhpSdYj-4" vertex="1">
                    <mxGeometry y="126" width="240" height="26" as="geometry"/>
                </mxCell>
                <mxCell id="vioCRKLANNzqf8_XyFKr-1" style="edgeStyle=none;html=1;fontSize=12;endArrow=block;endFill=0;endSize=12;exitX=0.5;exitY=0;exitDx=0;exitDy=0;entryX=0.313;entryY=1.087;entryDx=0;entryDy=0;entryPerimeter=0;" parent="6VugFxx_k9_ZybhpSdYj-1" source="6VugFxx_k9_ZybhpSdYj-11" edge="1">
                    <mxGeometry relative="1" as="geometry">
                        <mxPoint x="331.3800000000001" y="356.26199999999994" as="targetPoint"/>
                    </mxGeometry>
                </mxCell>
                <mxCell id="6VugFxx_k9_ZybhpSdYj-11" value="VorheesExporter" style="swimlane;fontStyle=1;align=center;verticalAlign=top;childLayout=stackLayout;horizontal=1;startSize=26;horizontalStack=0;resizeParent=1;resizeParentMax=0;resizeLast=0;collapsible=1;marginBottom=0;" parent="6VugFxx_k9_ZybhpSdYj-1" vertex="1">
                    <mxGeometry x="20" y="436" width="190" height="86" as="geometry"/>
                </mxCell>
                <mxCell id="6VugFxx_k9_ZybhpSdYj-12" value="" style="line;strokeWidth=1;fillColor=none;align=left;verticalAlign=middle;spacingTop=-1;spacingLeft=3;spacingRight=3;rotatable=0;labelPosition=right;points=[];portConstraint=eastwest;" parent="6VugFxx_k9_ZybhpSdYj-11" vertex="1">
                    <mxGeometry y="26" width="190" height="8" as="geometry"/>
                </mxCell>
                <mxCell id="6VugFxx_k9_ZybhpSdYj-13" value="- exportar(socio:Socio):string" style="text;strokeColor=none;fillColor=none;align=left;verticalAlign=top;spacingLeft=4;spacingRight=4;overflow=hidden;rotatable=0;points=[[0,0.5],[1,0.5]];portConstraint=eastwest;" parent="6VugFxx_k9_ZybhpSdYj-11" vertex="1">
                    <mxGeometry y="34" width="190" height="26" as="geometry"/>
                </mxCell>
                <mxCell id="6VugFxx_k9_ZybhpSdYj-14" value="+ exportar(socios: Socio[]) string" style="text;strokeColor=none;fillColor=none;align=left;verticalAlign=top;spacingLeft=4;spacingRight=4;overflow=hidden;rotatable=0;points=[[0,0.5],[1,0.5]];portConstraint=eastwest;" parent="6VugFxx_k9_ZybhpSdYj-11" vertex="1">
                    <mxGeometry y="60" width="190" height="26" as="geometry"/>
                </mxCell>
                <mxCell id="6VugFxx_k9_ZybhpSdYj-15" value="Socio" style="swimlane;fontStyle=1;align=center;verticalAlign=top;childLayout=stackLayout;horizontal=1;startSize=26;horizontalStack=0;resizeParent=1;resizeParentMax=0;resizeLast=0;collapsible=1;marginBottom=0;" parent="6VugFxx_k9_ZybhpSdYj-1" vertex="1">
                    <mxGeometry x="420" y="60" width="160" height="112" as="geometry"/>
                </mxCell>
                <mxCell id="6VugFxx_k9_ZybhpSdYj-16" value="- nombre" style="text;strokeColor=none;fillColor=none;align=left;verticalAlign=top;spacingLeft=4;spacingRight=4;overflow=hidden;rotatable=0;points=[[0,0.5],[1,0.5]];portConstraint=eastwest;" parent="6VugFxx_k9_ZybhpSdYj-15" vertex="1">
                    <mxGeometry y="26" width="160" height="26" as="geometry"/>
                </mxCell>
                <mxCell id="6VugFxx_k9_ZybhpSdYj-17" value="- legajo" style="text;strokeColor=none;fillColor=none;align=left;verticalAlign=top;spacingLeft=4;spacingRight=4;overflow=hidden;rotatable=0;points=[[0,0.5],[1,0.5]];portConstraint=eastwest;" parent="6VugFxx_k9_ZybhpSdYj-15" vertex="1">
                    <mxGeometry y="52" width="160" height="26" as="geometry"/>
                </mxCell>
                <mxCell id="6VugFxx_k9_ZybhpSdYj-18" value="- email" style="text;strokeColor=none;fillColor=none;align=left;verticalAlign=top;spacingLeft=4;spacingRight=4;overflow=hidden;rotatable=0;points=[[0,0.5],[1,0.5]];portConstraint=eastwest;" parent="6VugFxx_k9_ZybhpSdYj-15" vertex="1">
                    <mxGeometry y="78" width="160" height="26" as="geometry"/>
                </mxCell>
                <mxCell id="6VugFxx_k9_ZybhpSdYj-19" value="" style="line;strokeWidth=1;fillColor=none;align=left;verticalAlign=middle;spacingTop=-1;spacingLeft=3;spacingRight=3;rotatable=0;labelPosition=right;points=[];portConstraint=eastwest;" parent="6VugFxx_k9_ZybhpSdYj-15" vertex="1">
                    <mxGeometry y="104" width="160" height="8" as="geometry"/>
                </mxCell>
                <mxCell id="vioCRKLANNzqf8_XyFKr-0" style="edgeStyle=none;html=1;entryX=0.437;entryY=1.087;entryDx=0;entryDy=0;entryPerimeter=0;fontSize=12;endArrow=block;endFill=0;endSize=12;" parent="6VugFxx_k9_ZybhpSdYj-1" source="6VugFxx_k9_ZybhpSdYj-22" edge="1">
                    <mxGeometry relative="1" as="geometry">
                        <mxPoint x="363.6199999999999" y="356.26199999999994" as="targetPoint"/>
                    </mxGeometry>
                </mxCell>
                <mxCell id="_6OZpH69J-OEpRvtIhqR-6" style="edgeStyle=none;html=1;entryX=0.5;entryY=0;entryDx=0;entryDy=0;" parent="6VugFxx_k9_ZybhpSdYj-1" source="6VugFxx_k9_ZybhpSdYj-22" target="_6OZpH69J-OEpRvtIhqR-3" edge="1">
                    <mxGeometry relative="1" as="geometry"/>
                </mxCell>
                <mxCell id="6VugFxx_k9_ZybhpSdYj-22" value="&lt;&lt;adapter&gt;&gt;&#10;JSONAdapter" style="swimlane;fontStyle=1;align=center;verticalAlign=top;childLayout=stackLayout;horizontal=1;startSize=40;horizontalStack=0;resizeParent=1;resizeParentMax=0;resizeLast=0;collapsible=1;marginBottom=0;" parent="6VugFxx_k9_ZybhpSdYj-1" vertex="1">
                    <mxGeometry x="275" y="450" width="200" height="48" as="geometry"/>
                </mxCell>
                <mxCell id="6VugFxx_k9_ZybhpSdYj-23" value="" style="line;strokeWidth=1;fillColor=none;align=left;verticalAlign=middle;spacingTop=-1;spacingLeft=3;spacingRight=3;rotatable=0;labelPosition=right;points=[];portConstraint=eastwest;" parent="6VugFxx_k9_ZybhpSdYj-22" vertex="1">
                    <mxGeometry y="40" width="200" height="8" as="geometry"/>
                </mxCell>
                <mxCell id="6VugFxx_k9_ZybhpSdYj-25" value="&lt;&lt;interface/target&gt;&gt;&#10;Exporter&#10;" style="swimlane;fontStyle=1;align=center;verticalAlign=top;childLayout=stackLayout;horizontal=1;startSize=40;horizontalStack=0;resizeParent=1;resizeParentMax=0;resizeLast=0;collapsible=1;marginBottom=0;" parent="6VugFxx_k9_ZybhpSdYj-1" vertex="1">
                    <mxGeometry x="250" y="280" width="260" height="74" as="geometry"/>
                </mxCell>
                <mxCell id="6VugFxx_k9_ZybhpSdYj-27" value="" style="line;strokeWidth=1;fillColor=none;align=left;verticalAlign=middle;spacingTop=-1;spacingLeft=3;spacingRight=3;rotatable=0;labelPosition=right;points=[];portConstraint=eastwest;" parent="6VugFxx_k9_ZybhpSdYj-25" vertex="1">
                    <mxGeometry y="40" width="260" height="8" as="geometry"/>
                </mxCell>
                <mxCell id="6VugFxx_k9_ZybhpSdYj-24" value="+ exportar(socios: Socio[]) : string" style="text;strokeColor=none;fillColor=none;align=left;verticalAlign=top;spacingLeft=4;spacingRight=4;overflow=hidden;rotatable=0;points=[[0,0.5],[1,0.5]];portConstraint=eastwest;" parent="6VugFxx_k9_ZybhpSdYj-25" vertex="1">
                    <mxGeometry y="48" width="260" height="26" as="geometry"/>
                </mxCell>
                <mxCell id="vioCRKLANNzqf8_XyFKr-6" style="edgeStyle=none;html=1;fontSize=12;endArrow=block;endFill=0;endSize=12;" parent="6VugFxx_k9_ZybhpSdYj-1" source="vioCRKLANNzqf8_XyFKr-2" edge="1">
                    <mxGeometry relative="1" as="geometry">
                        <mxPoint x="397.94270833333326" y="354" as="targetPoint"/>
                    </mxGeometry>
                </mxCell>
                <mxCell id="_6OZpH69J-OEpRvtIhqR-7" style="edgeStyle=none;html=1;entryX=0.5;entryY=0;entryDx=0;entryDy=0;" parent="6VugFxx_k9_ZybhpSdYj-1" source="vioCRKLANNzqf8_XyFKr-2" target="_6OZpH69J-OEpRvtIhqR-1" edge="1">
                    <mxGeometry relative="1" as="geometry"/>
                </mxCell>
                <mxCell id="vioCRKLANNzqf8_XyFKr-2" value="&lt;&lt;adapter&gt;&gt;&#10;JacksonAdapter" style="swimlane;fontStyle=1;align=center;verticalAlign=top;childLayout=stackLayout;horizontal=1;startSize=34;horizontalStack=0;resizeParent=1;resizeParentMax=0;resizeLast=0;collapsible=1;marginBottom=0;" parent="6VugFxx_k9_ZybhpSdYj-1" vertex="1">
                    <mxGeometry x="560" y="436" width="190" height="42" as="geometry"/>
                </mxCell>
                <mxCell id="vioCRKLANNzqf8_XyFKr-3" value="" style="line;strokeWidth=1;fillColor=none;align=left;verticalAlign=middle;spacingTop=-1;spacingLeft=3;spacingRight=3;rotatable=0;labelPosition=right;points=[];portConstraint=eastwest;" parent="vioCRKLANNzqf8_XyFKr-2" vertex="1">
                    <mxGeometry y="34" width="190" height="8" as="geometry"/>
                </mxCell>
                <mxCell id="_6OZpH69J-OEpRvtIhqR-1" value="Jackson" style="swimlane;fontStyle=1;align=center;verticalAlign=top;childLayout=stackLayout;horizontal=1;startSize=26;horizontalStack=0;resizeParent=1;resizeParentMax=0;resizeLast=0;collapsible=1;marginBottom=0;" parent="6VugFxx_k9_ZybhpSdYj-1" vertex="1">
                    <mxGeometry x="550" y="600" width="190" height="34" as="geometry"/>
                </mxCell>
                <mxCell id="_6OZpH69J-OEpRvtIhqR-2" value="" style="line;strokeWidth=1;fillColor=none;align=left;verticalAlign=middle;spacingTop=-1;spacingLeft=3;spacingRight=3;rotatable=0;labelPosition=right;points=[];portConstraint=eastwest;" parent="_6OZpH69J-OEpRvtIhqR-1" vertex="1">
                    <mxGeometry y="26" width="190" height="8" as="geometry"/>
                </mxCell>
                <mxCell id="_6OZpH69J-OEpRvtIhqR-3" value="JSON.simple" style="swimlane;fontStyle=1;align=center;verticalAlign=top;childLayout=stackLayout;horizontal=1;startSize=26;horizontalStack=0;resizeParent=1;resizeParentMax=0;resizeLast=0;collapsible=1;marginBottom=0;" parent="6VugFxx_k9_ZybhpSdYj-1" vertex="1">
                    <mxGeometry x="285" y="610" width="190" height="34" as="geometry"/>
                </mxCell>
                <mxCell id="_6OZpH69J-OEpRvtIhqR-4" value="" style="line;strokeWidth=1;fillColor=none;align=left;verticalAlign=middle;spacingTop=-1;spacingLeft=3;spacingRight=3;rotatable=0;labelPosition=right;points=[];portConstraint=eastwest;" parent="_6OZpH69J-OEpRvtIhqR-3" vertex="1">
                    <mxGeometry y="26" width="190" height="8" as="geometry"/>
                </mxCell>
            </root>
        </mxGraphModel>
    </diagram>
</mxfile>